<svg width="31" height="30" viewBox="0 0 31 30" fill="none" xmlns="http://www.w3.org/2000/svg">
<path d="M17.399 29.9874H11V9.54705H17.1421V12.3072L17.2005 12.3239C17.2361 12.2891 17.2687 12.2514 17.2978 12.2111C18.2071 10.701 19.5438 9.72952 21.2452 9.30544C23.4125 8.76474 25.5429 8.92162 27.5545 9.93884C28.9017 10.6205 29.7209 11.7723 30.2346 13.1558C30.7224 14.4683 30.9056 15.8378 30.9539 17.2246C30.9992 18.5497 30.9928 19.8773 30.9962 21.2037C31.0013 24.0393 31.0013 26.8749 30.9962 29.7106C30.9962 30 30.9962 30 30.6953 30H24.8841C24.582 30 24.5816 30 24.5816 29.6909C24.5816 26.3737 24.5816 23.0562 24.5816 19.7385C24.5816 18.8232 24.5651 17.9084 24.3349 17.0119C24.1424 16.264 23.8187 15.5912 23.1569 15.1331C22.5577 14.7191 21.8744 14.6147 21.1648 14.6256C20.3934 14.6352 19.6504 14.7699 18.9992 15.2179C18.2643 15.7238 17.886 16.4578 17.6677 17.2905C17.4692 18.0455 17.4024 18.8178 17.4011 19.5942C17.396 22.9603 17.396 26.3266 17.4011 29.6929L17.399 29.9874Z" fill="black"/>
<path d="M1.01464 10H7V29.9848C6.92639 29.9885 6.85633 29.9955 6.78628 29.9955C4.93443 29.9955 3.08298 29.9934 1.23113 30C1.04828 30 1 29.9463 1 29.7589C1.00475 23.2453 1.0062 16.7317 1.00435 10.2181C1.00396 10.1513 1.01029 10.0845 1.01464 10Z" fill="black"/>
<path d="M3.98909 7C1.79139 6.99801 0.00684426 5.43316 1.91239e-05 3.50221C-0.00680602 1.58041 1.81414 -0.00833312 4.01366 3.289e-05C6.23365 0.0083989 8.00363 1.58201 7.99999 3.54284C7.99635 5.44272 6.18815 7.00239 3.98909 7Z" fill="black"/>
</svg>
